# xmcd
#
# Track frame offsets:
#	150
#	13845
#	26439
#	41774
#	52980
#	67152
#	85524
#	97534
#	110730
#	129310
#	144650
#	163110
#	177440
#	191060
#	212334
#	227907
#
# Disc length: 3288 seconds
#
# Revision: 0
# Processed by: cddbd v1.5.2PL0 Copyright (c) Steve Scherf et al.
# Submitted via: EasyCDDAExtractor 12.1.0.1
#
DISCID=d60cd610
DTITLE=基恩敬拜音樂事工 - 祈禱仔唱詩歌3
DYEAR=2011
DGENRE=
TTITLE0=神大愛 [HipHop版] God’s Magnificent Love
TTITLE1=願您平安 May Peace Be With You
TTITLE2=來投靠耶穌 Come Seek Refuge In Jesus
TTITLE3=奉祢名禱告 In Your Name We Pray
TTITLE4=讚美聲不停 Everlasting Worship
TTITLE5=在你寶座前 Before Your Throne
TTITLE6=願您蒙福 May You Be Blessed
TTITLE7=活著是為我主 Living For Jesus Our Lord
TTITLE8=數算恩典 Count Your Blessings
TTITLE9=萬國齊來歡呼 All Ye Nations, Come And Celebrate
TTITLE10=願主愛圍繞您 May God’s Love Enfold You
TTITLE11=宣告 Proclaim
TTITLE12=喜訊 The Good News
TTITLE13=慈繩愛索 The Rein Of Love, The Rope Of Grace
TTITLE14=同心走天路 United In Pilgrimage
TTITLE15=神大愛 [祈禱仔祈禱版] God’s Magnificent Love
EXTD=
EXTT0=
EXTT1=
EXTT2=
EXTT3=
EXTT4=
EXTT5=
EXTT6=
EXTT7=
EXTT8=
EXTT9=
EXTT10=
EXTT11=
EXTT12=
EXTT13=
EXTT14=
EXTT15=
PLAYORDER=
